<svg xmlns="http://www.w3.org/2000/svg" viewBox="0 0 800 400">
  <!-- Title -->
  <text x="400" y="30" font-size="18" font-weight="bold" text-anchor="middle" fill="#333">Processing Time Comparison (500K Records)</text>
  
  <!-- Y-axis -->
  <line x1="80" y1="60" x2="80" y2="340" stroke="#333" stroke-width="2"/>
  <text x="70" y="65" font-size="12" text-anchor="end" fill="#333">16h</text>
  <text x="70" y="115" font-size="12" text-anchor="end" fill="#333">14h</text>
  <text x="70" y="165" font-size="12" text-anchor="end" fill="#333">12h</text>
  <text x="70" y="215" font-size="12" text-anchor="end" fill="#333">10h</text>
  <text x="70" y="265" font-size="12" text-anchor="end" fill="#333">8h</text>
  <text x="70" y="315" font-size="12" text-anchor="end" fill="#333">6h</text>
  <text x="70" y="345" font-size="12" text-anchor="end" fill="#333">0h</text>
  
  <!-- X-axis -->
  <line x1="80" y1="340" x2="750" y2="340" stroke="#333" stroke-width="2"/>
  
  <!-- Bar 1: Current (Individual API calls) -->
  <rect x="120" y="68" width="120" height="272" fill="#FF5722" stroke="#D84315" stroke-width="2"/>
  <text x="180" y="210" font-size="14" font-weight="bold" text-anchor="middle" fill="white" transform="rotate(-90 180 210)">14+ hours</text>
  <text x="180" y="365" font-size="13" text-anchor="middle" fill="#333">Current</text>
  <text x="180" y="380" font-size="11" text-anchor="middle" fill="#666">(Individual calls)</text>
  
  <!-- Bar 2: Batched SEARCH_PREVIEW -->
  <rect x="280" y="118" width="120" height="222" fill="#FF9800" stroke="#F57C00" stroke-width="2"/>
  <text x="340" y="235" font-size="14" font-weight="bold" text-anchor="middle" fill="white" transform="rotate(-90 340 235)">8-10 hours</text>
  <text x="340" y="365" font-size="13" text-anchor="middle" fill="#333">Batched</text>
  <text x="340" y="380" font-size="11" text-anchor="middle" fill="#666">(Still too slow)</text>
  
  <!-- Bar 3: SPCS Vector Search -->
  <rect x="440" y="310" width="120" height="30" fill="#4CAF50" stroke="#2E7D32" stroke-width="2"/>
  <text x="500" y="330" font-size="14" font-weight="bold" text-anchor="middle" fill="white">30-60min</text>
  <text x="500" y="365" font-size="13" text-anchor="middle" fill="#333">SPCS</text>
  <text x="500" y="380" font-size="11" text-anchor="middle" fill="#666">(Recommended)</text>
  
  <!-- Improvement annotation -->
  <path d="M 180 90 L 500 320" stroke="#4CAF50" stroke-width="3" stroke-dasharray="5,5" fill="none"/>
  <text x="340" y="180" font-size="16" font-weight="bold" text-anchor="middle" fill="#2E7D32">20-30x FASTER</text>
  
  <!-- Legend -->
  <rect x="600" y="100" width="140" height="90" fill="#F5F5F5" stroke="#999" stroke-width="1" rx="5"/>
  <text x="670" y="120" font-size="13" font-weight="bold" text-anchor="middle" fill="#333">Performance</text>
  <rect x="610" y="130" width="15" height="15" fill="#FF5722"/>
  <text x="630" y="142" font-size="11" fill="#333">Slow (14h+)</text>
  <rect x="610" y="150" width="15" height="15" fill="#FF9800"/>
  <text x="630" y="162" font-size="11" fill="#333">Medium (8-10h)</text>
  <rect x="610" y="170" width="15" height="15" fill="#4CAF50"/>
  <text x="630" y="182" font-size="11" fill="#333">Fast (30-60m)</text>
</svg>

